<?xml version="1.0" encoding="UTF-8"?>
<svg viewBox="0 0 1063.5955 1306.0063" xmlns="http://www.w3.org/2000/svg" xmlns:xlink="http://www.w3.org/1999/xlink">
 <defs>
  <filter id="o" x="-.01861" y="-.5526" width="1.0372" height="2.1052">
   <feGaussianBlur stdDeviation="2.65814"/>
  </filter>
  <linearGradient id="a">
   <stop stop-color="#686a6e" offset="0"/>
   <stop stop-color="#686a6e" offset=".5"/>
   <stop stop-color="#686a6e" stop-opacity="0" offset="1"/>
  </linearGradient>
  <linearGradient id="n" x1="1375.4" x2="663.9" y1="-210.53" y2="976.08" gradientUnits="userSpaceOnUse">
   <stop stop-color="#282c32" offset="0"/>
   <stop offset="1"/>
  </linearGradient>
  <linearGradient id="m" x1="1379.4" x2="1157.6" y1="52.281" y2="261.53" gradientUnits="userSpaceOnUse">
   <stop stop-color="#595b5e" offset="0"/>
   <stop stop-color="#595b5e" offset=".5"/>
   <stop stop-color="#595b5e" stop-opacity="0" offset="1"/>
  </linearGradient>
  <linearGradient id="l" x2="0" y1="625.3" y2="695.1" gradientUnits="userSpaceOnUse">
   <stop stop-color="#151515" offset="0"/>
   <stop stop-color="#151515" offset=".60526"/>
   <stop stop-color="#525252" offset=".81579"/>
   <stop stop-color="#919192" offset="1"/>
  </linearGradient>
  <linearGradient id="b">
   <stop stop-color="#262a2d" offset="0"/>
   <stop stop-color="#606567" offset=".12389"/>
   <stop stop-color="#262a2d" offset=".2677"/>
   <stop stop-color="#262a2d" offset="1"/>
  </linearGradient>
  <linearGradient id="j" x2="0" y1="180.01" y2="207" gradientUnits="userSpaceOnUse">
   <stop stop-color="#262a2d" offset="0"/>
   <stop stop-color="#606567" offset=".08591"/>
   <stop stop-color="#262a2d" offset=".20801"/>
   <stop stop-color="#262a2d" offset="1"/>
  </linearGradient>
  <linearGradient id="i" x2="0" y1="130.1" y2="150.2" gradientUnits="userSpaceOnUse" xlink:href="#b"/>
  <linearGradient id="k" x2="0" y1="69.96" y2="85.273" gradientUnits="userSpaceOnUse" xlink:href="#b"/>
  <radialGradient id="e" cx="1467.8" cy="158.67" r="136.56" gradientTransform="matrix(-1.8819 -1.4897e-7 3.9598e-7 -5.0023 4229.9 749.98)" gradientUnits="userSpaceOnUse">
   <stop stop-color="#b0b0b2" offset="0"/>
   <stop stop-color="#b0b0b2" offset=".5"/>
   <stop stop-color="#b0b0b2" stop-opacity="0" offset="1"/>
  </radialGradient>
  <radialGradient id="d" cx="1459.6" cy="-208.55" r="258.06" gradientTransform="matrix(-1.8321 0 0 -.44989 4133.6 -148.91)" gradientUnits="userSpaceOnUse">
   <stop stop-color="#5d5e61" offset="0"/>
   <stop stop-color="#5d5e61" offset=".2523"/>
   <stop stop-color="#5d5e61" stop-opacity="0" offset="1"/>
  </radialGradient>
  <radialGradient id="c" cx="2509.4" cy="86.459" r="481" gradientTransform="matrix(-1.4232 0 0 -1.0201 5040.7 35.722)" gradientUnits="userSpaceOnUse">
   <stop stop-color="#4e4f51" offset="0"/>
   <stop stop-color="#4e4f51" offset=".21944"/>
   <stop offset="1"/>
  </radialGradient>
  <radialGradient id="h" cx="486.32" cy="-50.613" r="33.141" gradientTransform="matrix(-.00324 1.3444 -1.9632 -.00474 420.64 -710.19)" gradientUnits="userSpaceOnUse" xlink:href="#a"/>
  <radialGradient id="g" cx="1465.9" cy="1184.7" r="33.156" gradientTransform="matrix(8.294e-7 -1.3399 1.2274 7.5974e-7 11.836 3149.1)" gradientUnits="userSpaceOnUse" xlink:href="#a"/>
  <radialGradient id="f" cx="513.12" cy="1183.8" r="33.141" gradientTransform="matrix(1.2712 1.6299e-6 -1.7113e-6 1.3346 -138.88 -396.58)" gradientUnits="userSpaceOnUse" xlink:href="#a"/>
 </defs>
 <g transform="translate(-456.61 84.166)">
  <path transform="matrix(2.9907 0 0 1.2658 405.73 287.32)" d="m184.36 720.39h20.943a160.97 5.7723 0 0 1 160.97 5.7723 160.97 5.7723 0 0 1 -160.97 5.7723h-20.943a160.97 5.7723 0 0 1 -160.97 -5.7723 160.97 5.7723 0 0 1 160.97 -5.7723" fill="#323232" filter="url(#o)"/>
  <path d="m557.47-68.438c-35.654 0-64.344 28.69-64.344 64.344v1143.5c0 35.654 28.69 64.344 64.344 64.344h865.97c35.654 0 64.375-28.69 64.375-64.344v-1143.5c0-35.654-28.721-64.344-64.375-64.344h-865.97zm3.5948 2.4688h860.44c35.494 0 64.062 28.569 64.062 64.062v1138.3c0 35.494-28.569 64.063-64.062 64.063h-862.09c-35.494 0-64.063-28.569-64.063-64.063l1.6573-1138.3c0-35.494 28.569-64.062 64.063-64.062z" fill="#dcdde0"/>
  <path d="m1488.4 69.96h-2.4423v15.14h1.0357c0.7311 0 1.4066-0.81371 1.4066-2.1164v-13.024z" fill="url(#k)"/>
  <path d="m1487.7 130.1h-1.7504v30.976h1.2189c0.2514-2.3627 1.6802-12.023 1.6802-14.54v-15.888c0-0.30359-0.5124-0.54798-1.1487-0.54798z" fill="url(#i)"/>
  <path d="m1487.7 210.3h-1.7504v-30.976h1.2189c0.2514 2.3627 1.6802 12.023 1.6802 14.54v15.888c0 0.30359-0.5124 0.54798-1.1487 0.54798z" fill="url(#j)"/>
  <path d="m1486 130.1v30.976h1.1053v-30.976h-1.1053z" fill="#393a3b"/>
  <path d="m1486 179.32v30.976h1.1053v-30.976h-1.1053z" fill="#444448"/>
  <path d="m1487.1 69.96h-1.1053v15.14h1.1053v-15.14z" fill="#353537"/>
  <path d="m559.41-59.976h860.43a64.068 64.068 0 0 1 64.068 64.068v1138.3a64.068 64.068 0 0 1 -64.068 64.068h-860.43a64.068 64.068 0 0 1 -64.068 -64.068v-1138.3a64.068 64.068 0 0 1 64.068 -64.068" fill-opacity=".24"/>
  <path d="m557.47-68.438c-35.654 0-64.344 28.69-64.344 64.344v1143.5c0 35.654 28.69 64.344 64.344 64.344h864.31c35.654 0 64.375-28.69 64.375-64.344v-1143.5c0-35.654-28.721-64.344-64.375-64.344h-864.31zm1.9375 2.4688h860.44c35.494 0 64.062 28.569 64.062 64.062v1138.3c0 35.494-28.569 64.063-64.062 64.063h-860.44c-35.494 0-64.062-28.569-64.062-64.063v-1138.3c0-35.494 28.569-64.062 64.062-64.062z" fill="#989aa3"/>
  <path d="m559.41-65.969c-35.494 0-64.062 28.569-64.062 64.062v1138.3c0 35.494 28.569 64.063 64.062 64.063h860.44c35.494 0 64.062-28.569 64.062-64.063v-1138.3c0-35.494-28.569-64.062-64.062-64.062h-860.44zm1.2187 4.4062h858c33.777 0 60.969 27.191 60.969 60.969v1133.4c0 33.777-27.192 60.969-60.969 60.969h-858c-33.777 0-60.969-27.191-60.969-60.969v-1133.4c0-33.777 27.191-60.969 60.969-60.969z" fill="#eaeaec"/>
  <path d="m560.62-61.562c-33.777 0-60.969 27.191-60.969 60.969v1133.4c0 14.987 5.3743 28.687 14.281 39.281-8.3061-10.426-13.281-23.653-13.281-38.094v-1134c0-33.794 27.135-61 60.844-61h856.25c33.708 0 60.844 27.206 60.844 61v1134c0 14.486-4.9906 27.746-13.344 38.188 8.9584-10.608 14.344-24.34 14.344-39.375v-1133.4c-1e-4 -33.777-27.192-60.969-60.969-60.969h-858z" fill-opacity=".24"/>
  <path d="m561.5-61c-33.708 0-60.844 27.206-60.844 61v1134c0 33.794 27.135 61 60.844 61h856.25c33.708 0 60.844-27.206 60.844-61v-1134c-1e-4 -33.794-27.135-61-60.844-61h-856.25z" fill="#232427"/>
  <path d="m561.5-61c-33.708 0-60.844 27.206-60.844 61v1134c0 33.794 27.135 61 60.844 61h857.35c33.708 0 60.844-27.206 60.844-61v-1134c-1e-4 -33.794-25.202-61-58.91-61h-859.29zm0.75 1.3125h857.63c33.642 0 58.785 27.175 58.785 60.906v1131.9c0 33.731-27.077 60.906-60.719 60.906h-855.7c-33.642 0-60.719-27.175-60.719-60.906v-1131.9c0-33.731 27.077-60.906 60.719-60.906z" fill="#a6a7a7"/>
  <path d="m555.37-52.472h866.07a47.961 47.961 0 0 1 47.961 47.961v1143.9a47.961 47.961 0 0 1 -47.961 47.961h-866.07a47.961 47.961 0 0 1 -47.961 -47.961v-1143.9a47.961 47.961 0 0 1 47.961 -47.961" fill="url(#c)"/>
  <path d="m557.47-68.438c-35.654 0-64.344 28.69-64.344 64.344l2.2188 2.1875c0-35.494 28.569-64.062 64.062-64.062h24.084v-2.4688h-26.022z" fill="url(#h)"/>
  <path d="m1419.8-65.969c35.494 0 64.062 28.569 64.062 64.062v62.921h2.25v-65.108c0-35.654-28.721-64.344-64.375-64.344h-451.75v2.4688h449.82-2e-4z" fill="url(#d)"/>
  <path d="m1483.9 1136.4c0 35.494-28.569 64.062-64.062 64.063l1.9374 3.25c35.654 0 64.375-28.69 64.375-64.344l-2.25-2.9688z" fill="url(#g)"/>
  <path d="m493.12 1139.4c0 35.654 28.69 64.344 64.344 64.344l1.9375-3.25c-35.494 0-64.062-28.569-64.062-64.063l-2.2188 2.9688z" fill="url(#f)"/>
  <path d="m600.39-84.166z"/>
  <path d="m1210.8-65.969v4.4062h207.84c33.777 0 60.969 27.191 60.969 60.969v639.8h4.3124v-641.11c0-35.494-28.569-64.062-64.062-64.062h-209.06z" fill="url(#e)"/>
  <path d="m603.44 52.281v1031h776v-1031h-776zm4 3h768v1024h-768v-1024z" fill="url(#m)"/>
  <path d="m607.42 55.287h768v1024h-768z" fill="url(#n)"/>
  <path transform="matrix(.81811 0 0 .81811 832.52 603.39)" d="m229.39 660.2a34.898 34.898 0 1 1 -69.796 0 34.898 34.898 0 1 1 69.796 0z" fill="url(#l)"/>
  <path d="m1019.2 1143.5c0-15.215-12.334-27.548-27.548-27.548s-27.548 12.334-27.548 27.548c0 2.6334 0.3694 5.1805 1.0594 7.5922 21.095 8.1265 36.758 7.9647 52.99-0.043 0.6822-2.3991 1.0473-4.9316 1.0473-7.5494z" fill="#070707"/>
  <path d="m986.12 1133c-2.4049 0-4.3462 1.9413-4.3462 4.3462v11.351c0 2.4049 1.9413 4.3462 4.3462 4.3462h11.351c2.4049 0 4.3462-1.9413 4.3462-4.3462v-11.351c0-2.4049-1.9413-4.3462-4.3462-4.3462h-11.351zm0.3835 1.6619h10.584c1.6957 0 3.0679 1.3721 3.0679 3.0679v10.584c0 1.6957-1.3722 3.0423-3.0679 3.0423h-10.584c-1.6958 0-3.0424-1.3466-3.0424-3.0423v-10.584c0-1.6958 1.3466-3.0679 3.0424-3.0679z" fill="#ccced1"/>
  <path d="m1332-71.932h49.263c0.7581 0 1.3685 0.64593 1.3685 1.4483v1.5517h-52v-1.5517c0-0.80234 0.6103-1.4483 1.3684-1.4483z" fill="#141414"/>
  <path d="m1332.0312-71.9375c-.7581,0-1.375.66641-1.375,1.46875v.09375c0,.15713.051.29605.094.4375 .178-.58086.6716-1 1.2812-1h49.25c.611,0 1.1356.41721 1.3126,1 .043-.14038.062-.28175.062-.4375v-.09375c0-.80234-.6168-1.46875-1.375-1.46875h-49.25z" fill="#404040"/>
  <path d="m1330.6562-68.93188v-1.5625c0-.15713.051-.29605.094-.4375 .178.58086.6716,1 1.2812,1h49.25c.611,0 1.1356-.41721 1.3126-1 .043.14038.062.28175.062.4375v1.5625h-50.625-1.3748z" fill="#404040"/>
 </g>
</svg>
